<mxfile host="65bd71144e">
    <diagram id="4_RAU22VT3j1kdCce3RM" name="Page-1">
        <mxGraphModel dx="3684" dy="1629" grid="0" gridSize="10" guides="1" tooltips="1" connect="1" arrows="1" fold="1" page="1" pageScale="1" pageWidth="1654" pageHeight="1169" math="0" shadow="0">
            <root>
                <mxCell id="0"/>
                <mxCell id="1" parent="0"/>
                <mxCell id="2" value="Minishell Parser Tree" style="swimlane;startSize=52;horizontal=1;childLayout=treeLayout;horizontalTree=0;resizable=1;containerType=tree;fontSize=26;movable=1;rotatable=1;deletable=1;editable=1;connectable=1;container=0;fillColor=#b1ddf0;strokeColor=#10739e;fontFamily=Verdana;" parent="1" vertex="1">
                    <mxGeometry x="7" y="21" width="1640" height="1004" as="geometry"/>
                </mxCell>
                <mxCell id="12" value="and_or" style="whiteSpace=wrap;html=1;movable=1;resizable=1;rotatable=1;deletable=1;editable=1;connectable=1;" parent="2" vertex="1">
                    <mxGeometry x="457.246384" y="252" width="100" height="40" as="geometry"/>
                </mxCell>
                <mxCell id="11" value="" style="edgeStyle=elbowEdgeStyle;elbow=vertical;html=1;rounded=1;curved=0;sourcePerimeterSpacing=0;targetPerimeterSpacing=0;startSize=6;endSize=6;movable=1;resizable=1;rotatable=1;deletable=1;editable=1;connectable=1;" parent="2" source="4" target="12" edge="1">
                    <mxGeometry relative="1" as="geometry">
                        <mxPoint x="328.4999999999983" y="532" as="sourcePoint"/>
                    </mxGeometry>
                </mxCell>
                <mxCell id="17" value="" style="edgeStyle=elbowEdgeStyle;elbow=vertical;html=1;rounded=1;curved=0;sourcePerimeterSpacing=0;targetPerimeterSpacing=0;startSize=6;endSize=6;movable=1;resizable=1;rotatable=1;deletable=1;editable=1;connectable=1;" parent="2" source="12" target="18" edge="1">
                    <mxGeometry relative="1" as="geometry">
                        <mxPoint x="258.4999999999983" y="622" as="sourcePoint"/>
                    </mxGeometry>
                </mxCell>
                <mxCell id="4" value="list" style="whiteSpace=wrap;html=1;movable=1;resizable=1;rotatable=1;deletable=1;editable=1;connectable=1;container=0;" parent="2" vertex="1">
                    <mxGeometry x="718.8756140799999" y="162" width="100" height="40" as="geometry"/>
                </mxCell>
                <mxCell id="5" value="" style="edgeStyle=elbowEdgeStyle;elbow=vertical;html=1;rounded=1;curved=0;sourcePerimeterSpacing=0;targetPerimeterSpacing=0;startSize=6;endSize=6;movable=1;resizable=1;rotatable=1;deletable=1;editable=1;connectable=1;" parent="2" source="3" target="4" edge="1">
                    <mxGeometry relative="1" as="geometry"/>
                </mxCell>
                <mxCell id="6" value="list separator" style="whiteSpace=wrap;html=1;movable=1;resizable=1;rotatable=1;deletable=1;editable=1;connectable=1;container=0;" parent="2" vertex="1">
                    <mxGeometry x="1248.11284416" y="162" width="100" height="40" as="geometry"/>
                </mxCell>
                <mxCell id="7" value="" style="edgeStyle=elbowEdgeStyle;elbow=vertical;html=1;rounded=1;curved=0;sourcePerimeterSpacing=0;targetPerimeterSpacing=0;startSize=6;endSize=6;movable=1;resizable=1;rotatable=1;deletable=1;editable=1;connectable=1;" parent="2" source="3" target="6" edge="1">
                    <mxGeometry relative="1" as="geometry"/>
                </mxCell>
                <mxCell id="18" value="AND_IF linebreak pipeline" style="whiteSpace=wrap;html=1;movable=1;resizable=1;rotatable=1;deletable=1;editable=1;connectable=1;container=0;" parent="2" vertex="1">
                    <mxGeometry x="85.67330880000003" y="342" width="159" height="40" as="geometry"/>
                </mxCell>
                <mxCell id="21" value="list separator_op and_or" style="whiteSpace=wrap;html=1;movable=1;resizable=1;rotatable=1;deletable=1;editable=1;connectable=1;container=0;" parent="2" vertex="1">
                    <mxGeometry x="894.50484416" y="252" width="186" height="40" as="geometry"/>
                </mxCell>
                <mxCell id="23" style="edgeStyle=elbowEdgeStyle;html=1;entryX=0.5;entryY=0;entryDx=0;entryDy=0;rounded=1;elbow=vertical;" parent="2" source="4" target="21" edge="1">
                    <mxGeometry relative="1" as="geometry"/>
                </mxCell>
                <mxCell id="24" value="pipeline" style="whiteSpace=wrap;html=1;movable=1;resizable=1;rotatable=1;deletable=1;editable=1;connectable=1;container=0;" parent="2" vertex="1">
                    <mxGeometry x="467.746384" y="342" width="82" height="40" as="geometry"/>
                </mxCell>
                <mxCell id="25" style="edgeStyle=elbowEdgeStyle;rounded=1;elbow=vertical;html=1;" parent="2" source="12" target="24" edge="1">
                    <mxGeometry relative="1" as="geometry"/>
                </mxCell>
                <mxCell id="26" value="pipe_sequence&amp;nbsp;" style="whiteSpace=wrap;html=1;movable=1;resizable=1;rotatable=1;deletable=1;editable=1;connectable=1;container=0;" parent="2" vertex="1">
                    <mxGeometry x="238.90503999999999" y="432" width="119" height="40" as="geometry"/>
                </mxCell>
                <mxCell id="27" value="" style="edgeStyle=elbowEdgeStyle;rounded=1;elbow=vertical;html=1;" parent="2" source="24" target="26" edge="1">
                    <mxGeometry relative="1" as="geometry"/>
                </mxCell>
                <mxCell id="30" value="SEM_COL pipe_sequence" style="whiteSpace=wrap;html=1;movable=1;resizable=1;rotatable=1;deletable=1;editable=1;connectable=1;container=0;" parent="2" vertex="1">
                    <mxGeometry x="559.587728" y="432" width="219" height="40" as="geometry"/>
                </mxCell>
                <mxCell id="32" style="edgeStyle=elbowEdgeStyle;rounded=1;elbow=vertical;html=1;" parent="2" source="24" target="30" edge="1">
                    <mxGeometry relative="1" as="geometry"/>
                </mxCell>
                <mxCell id="37" value="linebreak command" style="whiteSpace=wrap;html=1;movable=1;resizable=1;rotatable=1;deletable=1;editable=1;connectable=1;container=0;" parent="2" vertex="1">
                    <mxGeometry x="36.801679999999976" y="522" width="130" height="40" as="geometry"/>
                </mxCell>
                <mxCell id="111" style="edgeStyle=elbowEdgeStyle;elbow=vertical;html=1;fontSize=22;" edge="1" parent="2" source="26" target="37">
                    <mxGeometry relative="1" as="geometry"/>
                </mxCell>
                <mxCell id="42" value="command" style="whiteSpace=wrap;html=1;movable=1;resizable=1;rotatable=1;deletable=1;editable=1;connectable=1;container=0;" parent="2" vertex="1">
                    <mxGeometry x="430.0084" y="522" width="130" height="40" as="geometry"/>
                </mxCell>
                <mxCell id="110" style="edgeStyle=elbowEdgeStyle;html=1;fontSize=22;elbow=vertical;" edge="1" parent="2" source="26" target="42">
                    <mxGeometry relative="1" as="geometry"/>
                </mxCell>
                <mxCell id="44" value="simple_command" style="whiteSpace=wrap;html=1;movable=1;resizable=1;rotatable=1;deletable=1;editable=1;connectable=1;container=0;" parent="2" vertex="1">
                    <mxGeometry x="151" y="612" width="130" height="40" as="geometry"/>
                </mxCell>
                <mxCell id="45" value="" style="edgeStyle=elbowEdgeStyle;html=1;elbow=vertical;" parent="2" source="42" target="44" edge="1">
                    <mxGeometry relative="1" as="geometry"/>
                </mxCell>
                <mxCell id="46" value="compound_command" style="whiteSpace=wrap;html=1;movable=1;resizable=1;rotatable=1;deletable=1;editable=1;connectable=1;container=0;" parent="2" vertex="1">
                    <mxGeometry x="709.0168000000001" y="612" width="130" height="40" as="geometry"/>
                </mxCell>
                <mxCell id="47" style="edgeStyle=elbowEdgeStyle;elbow=vertical;html=1;" parent="2" source="42" target="46" edge="1">
                    <mxGeometry relative="1" as="geometry"/>
                </mxCell>
                <mxCell id="51" value="subshell" style="whiteSpace=wrap;html=1;movable=1;resizable=1;rotatable=1;deletable=1;editable=1;connectable=1;container=0;" parent="2" vertex="1">
                    <mxGeometry x="512.922" y="702" width="130" height="40" as="geometry"/>
                </mxCell>
                <mxCell id="49" style="edgeStyle=elbowEdgeStyle;elbow=vertical;html=1;entryX=0.5;entryY=0;entryDx=0;entryDy=0;" parent="2" source="46" target="51" edge="1">
                    <mxGeometry relative="1" as="geometry">
                        <mxPoint x="160.2499999999983" y="710" as="targetPoint"/>
                    </mxGeometry>
                </mxCell>
                <mxCell id="55" value="'('" style="whiteSpace=wrap;html=1;movable=1;resizable=1;rotatable=1;deletable=1;editable=1;connectable=1;container=0;" parent="2" vertex="1">
                    <mxGeometry x="391.0780000000001" y="792" width="38" height="40" as="geometry"/>
                </mxCell>
                <mxCell id="52" style="edgeStyle=elbowEdgeStyle;elbow=vertical;html=1;entryX=0.5;entryY=0;entryDx=0;entryDy=0;" parent="2" source="51" target="55" edge="1">
                    <mxGeometry relative="1" as="geometry">
                        <mxPoint x="22.749999999998295" y="785.75" as="targetPoint"/>
                    </mxGeometry>
                </mxCell>
                <mxCell id="56" value="')'" style="whiteSpace=wrap;html=1;movable=1;resizable=1;rotatable=1;deletable=1;editable=1;connectable=1;container=0;" parent="2" vertex="1">
                    <mxGeometry x="469.0780000000001" y="792" width="29" height="40" as="geometry"/>
                </mxCell>
                <mxCell id="54" style="edgeStyle=elbowEdgeStyle;elbow=vertical;html=1;entryX=0.5;entryY=0;entryDx=0;entryDy=0;" parent="2" source="51" target="56" edge="1">
                    <mxGeometry relative="1" as="geometry">
                        <mxPoint x="151.7499999999983" y="782.75" as="targetPoint"/>
                    </mxGeometry>
                </mxCell>
                <mxCell id="57" value="compound_list" style="whiteSpace=wrap;html=1;movable=1;resizable=1;rotatable=1;deletable=1;editable=1;connectable=1;container=0;" parent="2" vertex="1">
                    <mxGeometry x="644.7660000000001" y="792" width="120" height="40" as="geometry"/>
                </mxCell>
                <mxCell id="53" style="edgeStyle=elbowEdgeStyle;elbow=vertical;html=1;entryX=0.5;entryY=0;entryDx=0;entryDy=0;" parent="2" source="51" target="57" edge="1">
                    <mxGeometry relative="1" as="geometry">
                        <mxPoint x="84.4999999999983" y="786.75" as="targetPoint"/>
                    </mxGeometry>
                </mxCell>
                <mxCell id="59" value="newline_list" style="whiteSpace=wrap;html=1;movable=1;resizable=1;rotatable=1;deletable=1;editable=1;connectable=1;container=0;" parent="2" vertex="1">
                    <mxGeometry x="511.4060000000001" y="882" width="72" height="26" as="geometry"/>
                </mxCell>
                <mxCell id="60" value="" style="edgeStyle=elbowEdgeStyle;elbow=vertical;html=1;" parent="2" source="57" target="59" edge="1">
                    <mxGeometry relative="1" as="geometry"/>
                </mxCell>
                <mxCell id="61" value="term" style="whiteSpace=wrap;html=1;movable=1;resizable=1;rotatable=1;deletable=1;editable=1;connectable=1;container=0;" parent="2" vertex="1">
                    <mxGeometry x="668.2060000000001" y="882" width="72" height="26" as="geometry"/>
                </mxCell>
                <mxCell id="62" style="edgeStyle=elbowEdgeStyle;elbow=vertical;html=1;entryX=0.5;entryY=0;entryDx=0;entryDy=0;" parent="2" source="57" target="61" edge="1">
                    <mxGeometry relative="1" as="geometry"/>
                </mxCell>
                <mxCell id="63" value="separator" style="whiteSpace=wrap;html=1;movable=1;resizable=1;rotatable=1;deletable=1;editable=1;connectable=1;container=0;" parent="2" vertex="1">
                    <mxGeometry x="826.1260000000002" y="882" width="72" height="27" as="geometry"/>
                </mxCell>
                <mxCell id="64" style="edgeStyle=elbowEdgeStyle;elbow=vertical;html=1;" parent="2" source="57" target="63" edge="1">
                    <mxGeometry relative="1" as="geometry"/>
                </mxCell>
                <mxCell id="69" value="separator" style="whiteSpace=wrap;html=1;movable=1;resizable=1;rotatable=1;deletable=1;editable=1;connectable=1;container=0;" parent="2" vertex="1">
                    <mxGeometry x="612.2060000000001" y="958" width="72" height="26" as="geometry"/>
                </mxCell>
                <mxCell id="67" style="edgeStyle=elbowEdgeStyle;elbow=vertical;html=1;entryX=0.5;entryY=0;entryDx=0;entryDy=0;" parent="2" source="61" target="69" edge="1">
                    <mxGeometry relative="1" as="geometry">
                        <mxPoint x="-57.58163265306314" y="961.4693877551019" as="targetPoint"/>
                    </mxGeometry>
                </mxCell>
                <mxCell id="75" value="and_or" style="whiteSpace=wrap;html=1;movable=1;resizable=1;rotatable=1;deletable=1;editable=1;connectable=1;container=0;" parent="2" vertex="1">
                    <mxGeometry x="724.2060000000001" y="958" width="72" height="26" as="geometry"/>
                </mxCell>
                <mxCell id="74" style="edgeStyle=elbowEdgeStyle;elbow=vertical;html=1;" parent="2" source="61" target="75" edge="1">
                    <mxGeometry relative="1" as="geometry">
                        <mxPoint x="72.6224489795901" y="962.8979591836735" as="targetPoint"/>
                    </mxGeometry>
                </mxCell>
                <mxCell id="77" value="name" style="whiteSpace=wrap;html=1;movable=1;resizable=1;rotatable=1;deletable=1;editable=1;connectable=1;container=0;" parent="2" vertex="1">
                    <mxGeometry x="20" y="702" width="68" height="25" as="geometry"/>
                </mxCell>
                <mxCell id="76" style="edgeStyle=elbowEdgeStyle;elbow=vertical;html=1;entryX=0.5;entryY=0;entryDx=0;entryDy=0;" parent="2" source="44" target="77" edge="1">
                    <mxGeometry relative="1" as="geometry">
                        <mxPoint x="-427.0000000000017" y="696" as="targetPoint"/>
                    </mxGeometry>
                </mxCell>
                <mxCell id="78" value="options/arg" style="whiteSpace=wrap;html=1;movable=1;resizable=1;rotatable=1;deletable=1;editable=1;connectable=1;container=0;" parent="2" vertex="1">
                    <mxGeometry x="128" y="702" width="68" height="25" as="geometry"/>
                </mxCell>
                <mxCell id="81" style="edgeStyle=elbowEdgeStyle;elbow=vertical;html=1;entryX=0.5;entryY=0;entryDx=0;entryDy=0;" parent="2" source="44" target="78" edge="1">
                    <mxGeometry relative="1" as="geometry"/>
                </mxCell>
                <mxCell id="79" value="infile" style="whiteSpace=wrap;html=1;movable=1;resizable=1;rotatable=1;deletable=1;editable=1;connectable=1;container=0;" parent="2" vertex="1">
                    <mxGeometry x="236" y="702" width="68" height="25" as="geometry"/>
                </mxCell>
                <mxCell id="82" style="edgeStyle=elbowEdgeStyle;elbow=vertical;html=1;" parent="2" source="44" target="79" edge="1">
                    <mxGeometry relative="1" as="geometry"/>
                </mxCell>
                <mxCell id="80" value="outfile" style="whiteSpace=wrap;html=1;movable=1;resizable=1;rotatable=1;deletable=1;editable=1;connectable=1;container=0;" parent="2" vertex="1">
                    <mxGeometry x="344" y="702" width="68" height="25" as="geometry"/>
                </mxCell>
                <mxCell id="83" style="edgeStyle=elbowEdgeStyle;elbow=vertical;html=1;" parent="2" source="44" target="80" edge="1">
                    <mxGeometry relative="1" as="geometry"/>
                </mxCell>
                <mxCell id="87" value="list" style="whiteSpace=wrap;html=1;movable=1;resizable=1;rotatable=1;deletable=1;editable=1;connectable=1;container=0;" parent="2" vertex="1">
                    <mxGeometry x="1120.50484416" y="252" width="100" height="40" as="geometry"/>
                </mxCell>
                <mxCell id="85" style="edgeStyle=elbowEdgeStyle;elbow=vertical;html=1;entryX=0.5;entryY=0;entryDx=0;entryDy=0;" parent="2" source="6" target="87" edge="1">
                    <mxGeometry relative="1" as="geometry">
                        <mxPoint x="300.98275862068806" y="272.8275862068966" as="targetPoint"/>
                    </mxGeometry>
                </mxCell>
                <mxCell id="88" value="separator" style="whiteSpace=wrap;html=1;movable=1;resizable=1;rotatable=1;deletable=1;editable=1;connectable=1;container=0;" parent="2" vertex="1">
                    <mxGeometry x="1375.7208441599998" y="252" width="100" height="40" as="geometry"/>
                </mxCell>
                <mxCell id="86" style="edgeStyle=elbowEdgeStyle;elbow=vertical;html=1;" parent="2" source="6" target="88" edge="1">
                    <mxGeometry relative="1" as="geometry">
                        <mxPoint x="513.3965517241379" y="271.44827586206895" as="targetPoint"/>
                    </mxGeometry>
                </mxCell>
                <mxCell id="91" value="separator_op linebreak" style="whiteSpace=wrap;html=1;movable=1;resizable=1;rotatable=1;deletable=1;editable=1;connectable=1;container=0;" parent="2" vertex="1">
                    <mxGeometry x="1231.7008441599999" y="342" width="137" height="27" as="geometry"/>
                </mxCell>
                <mxCell id="89" style="edgeStyle=elbowEdgeStyle;elbow=vertical;html=1;entryX=0.5;entryY=0;entryDx=0;entryDy=0;" parent="2" source="88" target="91" edge="1">
                    <mxGeometry relative="1" as="geometry">
                        <mxPoint x="402.4999999999983" y="340" as="targetPoint"/>
                    </mxGeometry>
                </mxCell>
                <mxCell id="92" value="newline_list" style="whiteSpace=wrap;html=1;movable=1;resizable=1;rotatable=1;deletable=1;editable=1;connectable=1;container=0;" parent="2" vertex="1">
                    <mxGeometry x="1519.7408441599998" y="342" width="100" height="28" as="geometry"/>
                </mxCell>
                <mxCell id="90" style="edgeStyle=elbowEdgeStyle;elbow=vertical;html=1;entryX=0.5;entryY=0;entryDx=0;entryDy=0;" parent="2" source="88" target="92" edge="1">
                    <mxGeometry relative="1" as="geometry">
                        <mxPoint x="549.9482758620691" y="348.68965517241384" as="targetPoint"/>
                    </mxGeometry>
                </mxCell>
                <mxCell id="95" value="separator_op" style="whiteSpace=wrap;html=1;movable=1;resizable=1;rotatable=1;deletable=1;editable=1;connectable=1;container=0;" parent="2" vertex="1">
                    <mxGeometry x="1159.2008441599999" y="419" width="100" height="28" as="geometry"/>
                </mxCell>
                <mxCell id="93" style="edgeStyle=elbowEdgeStyle;elbow=vertical;html=1;entryX=0.457;entryY=0.007;entryDx=0;entryDy=0;entryPerimeter=0;" parent="2" source="91" target="95" edge="1">
                    <mxGeometry relative="1" as="geometry">
                        <mxPoint x="331.2777777777759" y="396.4074074074074" as="targetPoint"/>
                    </mxGeometry>
                </mxCell>
                <mxCell id="96" value="linebreak" style="whiteSpace=wrap;html=1;movable=1;resizable=1;rotatable=1;deletable=1;editable=1;connectable=1;container=0;" parent="2" vertex="1">
                    <mxGeometry x="1341.2008441599999" y="419" width="100" height="28" as="geometry"/>
                </mxCell>
                <mxCell id="94" style="edgeStyle=elbowEdgeStyle;elbow=vertical;html=1;entryX=0.558;entryY=0.071;entryDx=0;entryDy=0;entryPerimeter=0;" parent="2" source="91" target="96" edge="1">
                    <mxGeometry relative="1" as="geometry">
                        <mxPoint x="449.7962962962946" y="396.03703703703695" as="targetPoint"/>
                    </mxGeometry>
                </mxCell>
                <mxCell id="99" value="'&amp;amp;'" style="whiteSpace=wrap;html=1;movable=1;resizable=1;rotatable=1;deletable=1;editable=1;connectable=1;container=0;" parent="2" vertex="1">
                    <mxGeometry x="1164.2008441599999" y="497" width="25" height="21" as="geometry"/>
                </mxCell>
                <mxCell id="97" style="edgeStyle=elbowEdgeStyle;elbow=vertical;html=1;entryX=0.48;entryY=0.071;entryDx=0;entryDy=0;entryPerimeter=0;" parent="2" source="95" target="99" edge="1">
                    <mxGeometry relative="1" as="geometry">
                        <mxPoint x="302.4999999999983" y="468" as="targetPoint"/>
                    </mxGeometry>
                </mxCell>
                <mxCell id="101" value="';'" style="whiteSpace=wrap;html=1;movable=1;resizable=1;rotatable=1;deletable=1;editable=1;connectable=1;container=0;" parent="2" vertex="1">
                    <mxGeometry x="1229.2008441599999" y="497" width="25" height="21" as="geometry"/>
                </mxCell>
                <mxCell id="98" style="edgeStyle=elbowEdgeStyle;elbow=vertical;html=1;entryX=0.5;entryY=0;entryDx=0;entryDy=0;" parent="2" source="95" target="101" edge="1">
                    <mxGeometry relative="1" as="geometry">
                        <mxPoint x="357.5740740740722" y="465.4814814814814" as="targetPoint"/>
                    </mxGeometry>
                </mxCell>
                <mxCell id="105" value="NULL" style="whiteSpace=wrap;html=1;movable=1;resizable=1;rotatable=1;deletable=1;editable=1;connectable=1;container=0;" parent="2" vertex="1">
                    <mxGeometry x="1294.2008441599999" y="497" width="41" height="21" as="geometry"/>
                </mxCell>
                <mxCell id="104" style="edgeStyle=elbowEdgeStyle;elbow=vertical;html=1;entryX=0.5;entryY=0;entryDx=0;entryDy=0;" parent="2" source="96" target="105" edge="1">
                    <mxGeometry relative="1" as="geometry">
                        <mxPoint x="409.2241379310327" y="465.37931034482756" as="targetPoint"/>
                    </mxGeometry>
                </mxCell>
                <mxCell id="106" value="newline_list" style="whiteSpace=wrap;html=1;movable=1;resizable=1;rotatable=1;deletable=1;editable=1;connectable=1;container=0;" parent="2" vertex="1">
                    <mxGeometry x="1375.2008441599999" y="497" width="113" height="21" as="geometry"/>
                </mxCell>
                <mxCell id="103" style="edgeStyle=elbowEdgeStyle;elbow=vertical;html=1;" parent="2" source="96" target="106" edge="1">
                    <mxGeometry relative="1" as="geometry">
                        <mxPoint x="525.7758620689656" y="464.68965517241384" as="targetPoint"/>
                    </mxGeometry>
                </mxCell>
                <mxCell id="108" value="NEWLINE" style="whiteSpace=wrap;html=1;movable=1;resizable=1;rotatable=1;deletable=1;editable=1;connectable=1;container=0;" parent="2" vertex="1">
                    <mxGeometry x="1519.7408441599998" y="420" width="100" height="28" as="geometry"/>
                </mxCell>
                <mxCell id="107" style="edgeStyle=elbowEdgeStyle;elbow=vertical;html=1;entryX=0.5;entryY=0;entryDx=0;entryDy=0;" parent="2" source="92" target="108" edge="1">
                    <mxGeometry relative="1" as="geometry">
                        <mxPoint x="582.5" y="398.1379310344828" as="targetPoint"/>
                    </mxGeometry>
                </mxCell>
                <mxCell id="113" value="io_redirect" style="whiteSpace=wrap;html=1;movable=1;resizable=1;rotatable=1;deletable=1;editable=1;connectable=1;container=0;" vertex="1" parent="2">
                    <mxGeometry x="905.1116000000002" y="702" width="130" height="40" as="geometry"/>
                </mxCell>
                <mxCell id="112" style="edgeStyle=elbowEdgeStyle;elbow=vertical;html=1;fontSize=22;entryX=0.5;entryY=0;entryDx=0;entryDy=0;" edge="1" parent="2" source="46" target="113">
                    <mxGeometry relative="1" as="geometry">
                        <mxPoint x="311.32352941176316" y="710.4705882352941" as="targetPoint"/>
                    </mxGeometry>
                </mxCell>
                <mxCell id="116" value="io_here" style="whiteSpace=wrap;html=1;movable=1;resizable=1;rotatable=1;deletable=1;editable=1;connectable=1;container=0;" vertex="1" parent="2">
                    <mxGeometry x="866.1116000000002" y="792" width="84" height="23" as="geometry"/>
                </mxCell>
                <mxCell id="114" style="edgeStyle=elbowEdgeStyle;elbow=vertical;html=1;fontSize=22;entryX=0.5;entryY=0;entryDx=0;entryDy=0;" edge="1" parent="2" source="113" target="116">
                    <mxGeometry relative="1" as="geometry">
                        <mxPoint x="372.4999999999983" y="778" as="targetPoint"/>
                    </mxGeometry>
                </mxCell>
                <mxCell id="117" value="io_file" style="whiteSpace=wrap;html=1;movable=1;resizable=1;rotatable=1;deletable=1;editable=1;connectable=1;container=0;" vertex="1" parent="2">
                    <mxGeometry x="990.1116000000002" y="792" width="84" height="25" as="geometry"/>
                </mxCell>
                <mxCell id="115" style="edgeStyle=elbowEdgeStyle;elbow=vertical;html=1;fontSize=22;entryX=0.5;entryY=0;entryDx=0;entryDy=0;" edge="1" parent="2" source="113" target="117">
                    <mxGeometry relative="1" as="geometry">
                        <mxPoint x="203.0882352941161" y="781.6470588235295" as="targetPoint"/>
                    </mxGeometry>
                </mxCell>
                <mxCell id="14" value="OR_IF linebreak pipeline" style="whiteSpace=wrap;html=1;movable=1;resizable=1;rotatable=1;deletable=1;editable=1;connectable=1;" parent="2" vertex="1">
                    <mxGeometry x="772.8194592" y="342" width="156" height="40" as="geometry"/>
                </mxCell>
                <mxCell id="13" value="" style="edgeStyle=elbowEdgeStyle;elbow=vertical;html=1;rounded=1;curved=0;sourcePerimeterSpacing=0;targetPerimeterSpacing=0;startSize=6;endSize=6;movable=1;resizable=1;rotatable=1;deletable=1;editable=1;connectable=1;" parent="2" source="12" target="14" edge="1">
                    <mxGeometry relative="1" as="geometry">
                        <mxPoint x="258.4999999999983" y="622" as="sourcePoint"/>
                    </mxGeometry>
                </mxCell>
                <mxCell id="3" value="complete_command" style="whiteSpace=wrap;html=1;movable=1;resizable=1;rotatable=1;deletable=1;editable=1;connectable=1;container=0;fillColor=#f8cecc;strokeColor=#b85450;" parent="2" vertex="1">
                    <mxGeometry x="935.99422912" y="72" width="195" height="40" as="geometry"/>
                </mxCell>
            </root>
        </mxGraphModel>
    </diagram>
</mxfile>